# Export of SceneVidePourExport
# from Aaro4130 OBJ Exporter v2.0
v 3.296066 0 2.928452
v 3.296066 5.80014 2.928452
v 3.296066 5.80014 -2.928452
v 3.296066 0 -2.928452
v 2.703933 5.80014 -2.928452
v 2.703931 5.80014 2.928452
v 2.703931 0 2.928452
v 2.703933 0 -2.928452
v 2.703933 0 -2.928452
v 3.296066 0 -2.928452
v 3.296066 5.80014 -2.928452
v 2.703933 5.80014 -2.928452
v 2.703931 0 2.928452
v 3.296066 0 2.928452
v 3.296066 0 -2.928452
v 2.703933 0 -2.928452
v 3.296066 5.80014 2.928452
v 3.296066 0 2.928452
v 2.703931 0 2.928452
v 2.703931 5.80014 2.928452
v 2.703933 5.80014 -2.928452
v 3.296066 5.80014 -2.928452
v 3.296066 5.80014 2.928452
v 2.703931 5.80014 2.928452
vn 0.5714817 -0.05834229 0.05777695
vn 0.5714817 0.05834229 0.05777695
vn 0.5714817 0.05834229 -0.05777676
vn 0.5714817 -0.05834229 -0.05777676
vn -0.5714817 0.0583423 -0.05777695
vn -0.5714817 0.05834228 0.05777677
vn -0.5714817 -0.05834228 0.05777677
vn -0.5714817 -0.0583423 -0.05777695
vn -0.5714817 -0.0583423 -0.05777695
vn 0.5714817 -0.05834229 -0.05777676
vn 0.5714817 0.05834229 -0.05777676
vn -0.5714817 0.0583423 -0.05777695
vn -0.5714817 -0.05834228 0.05777677
vn 0.5714817 -0.05834229 0.05777695
vn 0.5714817 -0.05834229 -0.05777676
vn -0.5714817 -0.0583423 -0.05777695
vn 0.5714817 0.05834229 0.05777695
vn 0.5714817 -0.05834229 0.05777695
vn -0.5714817 -0.05834228 0.05777677
vn -0.5714817 0.05834228 0.05777677
vn -0.5714817 0.0583423 -0.05777695
vn 0.5714817 0.05834229 -0.05777676
vn 0.5714817 0.05834229 0.05777695
vn -0.5714817 0.05834228 0.05777677
vt 0.9991207 0.0002957582
vt 0.9988784 0.9980083
vt 0.002778287 0.9984558
vt 0.002814294 0.0001903772
vt 0.001500964 0.9990195
vt 0.9987178 0.9989142
vt 0.9990015 0.00156188
vt 0.005022079 0.001240492
vt -0.1354364 0.001689315
vt 0.002814294 0.0001903772
vt 0.002778287 0.9984558
vt -0.1354336 0.9996883
vt 0.9989648 -0.1404794
vt 0.9991207 0.0002957582
vt 0.002814294 0.0001903772
vt 0.002948945 -0.1405851
vt 0.9988784 0.9980083
vt 0.9991207 0.0002957582
vt 1.138588 0.001749873
vt 1.138252 0.9994624
vt 0.002775225 1.119871
vt 0.002778287 0.9984558
vt 0.9988784 0.9980083
vt 0.9987909 1.119423
usemtl Wall_Gray_A
f 3/3/3 2/2/2 1/1/1
f 4/4/4 3/3/3 1/1/1
f 7/7/7 6/6/6 5/5/5
f 8/8/8 7/7/7 5/5/5
f 11/11/11 10/10/10 9/9/9
f 12/12/12 11/11/11 9/9/9
f 15/15/15 14/14/14 13/13/13
f 16/16/16 15/15/15 13/13/13
f 19/19/19 18/18/18 17/17/17
f 20/20/20 19/19/19 17/17/17
f 23/23/23 22/22/22 21/21/21
f 24/24/24 23/23/23 21/21/21
v 2.90007 3.64125E-10 2.928453
v -2.90007 3.64125E-10 2.928453
v -2.90007 3.64125E-10 -2.92845
v 2.90007 3.64125E-10 -2.92845
v -2.90007 -0.5921326 -2.92845
v -2.90007 -0.5921345 2.928453
v 2.90007 -0.5921345 2.928453
v 2.90007 -0.5921326 -2.92845
v -2.90007 -0.5921326 -2.92845
v 2.90007 -0.5921326 -2.92845
v 2.90007 3.64125E-10 -2.92845
v -2.90007 3.64125E-10 -2.92845
v 2.90007 -0.5921326 -2.92845
v 2.90007 -0.5921345 2.928453
v 2.90007 3.64125E-10 2.928453
v 2.90007 3.64125E-10 -2.92845
v 2.90007 3.64125E-10 2.928453
v 2.90007 -0.5921345 2.928453
v -2.90007 -0.5921345 2.928453
v -2.90007 3.64125E-10 2.928453
v -2.90007 3.64125E-10 -2.92845
v -2.90007 3.64125E-10 2.928453
v -2.90007 -0.5921345 2.928453
v -2.90007 -0.5921326 -2.92845
vn 0.05834229 0.5714817 0.05777695
vn -0.05834229 0.5714817 0.05777695
vn -0.05834229 0.5714817 -0.05777676
vn 0.05834229 0.5714817 -0.05777676
vn -0.0583423 -0.5714817 -0.05777695
vn -0.05834227 -0.5714817 0.05777676
vn 0.05834227 -0.5714817 0.05777676
vn 0.0583423 -0.5714817 -0.05777695
vn -0.0583423 -0.5714817 -0.05777695
vn 0.0583423 -0.5714817 -0.05777695
vn 0.05834229 0.5714817 -0.05777676
vn -0.05834229 0.5714817 -0.05777676
vn 0.0583423 -0.5714817 -0.05777695
vn 0.05834227 -0.5714817 0.05777676
vn 0.05834229 0.5714817 0.05777695
vn 0.05834229 0.5714817 -0.05777676
vn 0.05834229 0.5714817 0.05777695
vn 0.05834227 -0.5714817 0.05777676
vn -0.05834227 -0.5714817 0.05777676
vn -0.05834229 0.5714817 0.05777695
vn -0.05834229 0.5714817 -0.05777676
vn -0.05834229 0.5714817 0.05777695
vn -0.05834227 -0.5714817 0.05777676
vn -0.0583423 -0.5714817 -0.05777695
vt 0.9991207 0.0002957582
vt 0.9988784 0.9980083
vt 0.002778287 0.9984558
vt 0.002814294 0.0001903772
vt 0.001500964 0.9990195
vt 0.9987178 0.9989142
vt 0.9990015 0.00156188
vt 0.005022079 0.001240492
vt -0.1354336 0.9996883
vt -0.1354364 0.001689315
vt 0.002814294 0.0001903772
vt 0.002778287 0.9984558
vt 0.002948945 -0.1405851
vt 0.9989648 -0.1404794
vt 0.9991207 0.0002957582
vt 0.002814294 0.0001903772
vt 0.9991207 0.0002957582
vt 1.138588 0.001749873
vt 1.138252 0.9994624
vt 0.9988784 0.9980083
vt 0.002778287 0.9984558
vt 0.9988784 0.9980083
vt 0.9987909 1.119423
vt 0.002775225 1.119871
usemtl M_Floor_B
f 27/27/27 26/26/26 25/25/25
f 28/28/28 27/27/27 25/25/25
f 31/31/31 30/30/30 29/29/29
f 32/32/32 31/31/31 29/29/29
f 35/35/35 34/34/34 33/33/33
f 36/36/36 35/35/35 33/33/33
f 39/39/39 38/38/38 37/37/37
f 40/40/40 39/39/39 37/37/37
f 43/43/43 42/42/42 41/41/41
f 44/44/44 43/43/43 41/41/41
f 47/47/47 46/46/46 45/45/45
f 48/48/48 47/47/47 45/45/45
v -2.703934 0 2.928452
v -2.703934 5.80014 2.928452
v -2.703934 5.80014 -2.928452
v -2.703934 0 -2.928452
v -3.296067 5.80014 -2.928452
v -3.296069 5.80014 2.928452
v -3.296069 0 2.928452
v -3.296067 0 -2.928452
v -3.296067 0 -2.928452
v -2.703934 0 -2.928452
v -2.703934 5.80014 -2.928452
v -3.296067 5.80014 -2.928452
v -3.296069 0 2.928452
v -2.703934 0 2.928452
v -2.703934 0 -2.928452
v -3.296067 0 -2.928452
v -2.703934 5.80014 2.928452
v -2.703934 0 2.928452
v -3.296069 0 2.928452
v -3.296069 5.80014 2.928452
v -3.296067 5.80014 -2.928452
v -2.703934 5.80014 -2.928452
v -2.703934 5.80014 2.928452
v -3.296069 5.80014 2.928452
vn 0.5714817 -0.05834229 0.05777695
vn 0.5714817 0.05834229 0.05777695
vn 0.5714817 0.05834229 -0.05777676
vn 0.5714817 -0.05834229 -0.05777676
vn -0.5714817 0.0583423 -0.05777695
vn -0.5714817 0.05834228 0.05777677
vn -0.5714817 -0.05834228 0.05777677
vn -0.5714817 -0.0583423 -0.05777695
vn -0.5714817 -0.0583423 -0.05777695
vn 0.5714817 -0.05834229 -0.05777676
vn 0.5714817 0.05834229 -0.05777676
vn -0.5714817 0.0583423 -0.05777695
vn -0.5714817 -0.05834228 0.05777677
vn 0.5714817 -0.05834229 0.05777695
vn 0.5714817 -0.05834229 -0.05777676
vn -0.5714817 -0.0583423 -0.05777695
vn 0.5714817 0.05834229 0.05777695
vn 0.5714817 -0.05834229 0.05777695
vn -0.5714817 -0.05834228 0.05777677
vn -0.5714817 0.05834228 0.05777677
vn -0.5714817 0.0583423 -0.05777695
vn 0.5714817 0.05834229 -0.05777676
vn 0.5714817 0.05834229 0.05777695
vn -0.5714817 0.05834228 0.05777677
vt 0.9991207 0.0002957582
vt 0.9988784 0.9980083
vt 0.002778287 0.9984558
vt 0.002814294 0.0001903772
vt 0.001500964 0.9990195
vt 0.9987178 0.9989142
vt 0.9990015 0.00156188
vt 0.005022079 0.001240492
vt -0.1354364 0.001689315
vt 0.002814294 0.0001903772
vt 0.002778287 0.9984558
vt -0.1354336 0.9996883
vt 0.9989648 -0.1404794
vt 0.9991207 0.0002957582
vt 0.002814294 0.0001903772
vt 0.002948945 -0.1405851
vt 0.9988784 0.9980083
vt 0.9991207 0.0002957582
vt 1.138588 0.001749873
vt 1.138252 0.9994624
vt 0.002775225 1.119871
vt 0.002778287 0.9984558
vt 0.9988784 0.9980083
vt 0.9987909 1.119423
usemtl Wall_Gray_A
f 51/51/51 50/50/50 49/49/49
f 52/52/52 51/51/51 49/49/49
f 55/55/55 54/54/54 53/53/53
f 56/56/56 55/55/55 53/53/53
f 59/59/59 58/58/58 57/57/57
f 60/60/60 59/59/59 57/57/57
f 63/63/63 62/62/62 61/61/61
f 64/64/64 63/63/63 61/61/61
f 67/67/67 66/66/66 65/65/65
f 68/68/68 67/67/67 65/65/65
f 71/71/71 70/70/70 69/69/69
f 72/72/72 71/71/71 69/69/69
