# Export of SceneVidePourExport
# from Aaro4130 OBJ Exporter v2.0
v 3.296066 0 2.928453
v 3.296066 5.80014 2.928453
v 3.296066 5.80014 -2.928453
v 3.296066 0 -2.928453
v 2.703933 5.80014 -2.928453
v 2.703931 5.80014 2.928453
v 2.703931 0 2.928453
v 2.703933 0 -2.928453
v 2.703933 0 -2.928453
v 3.296066 0 -2.928453
v 3.296066 5.80014 -2.928453
v 2.703933 5.80014 -2.928453
v 2.703931 0 2.928453
v 3.296066 0 2.928453
v 3.296066 0 -2.928453
v 2.703933 0 -2.928453
v 3.296066 5.80014 2.928453
v 3.296066 0 2.928453
v 2.703931 0 2.928453
v 2.703931 5.80014 2.928453
v 2.703933 5.80014 -2.928453
v 3.296066 5.80014 -2.928453
v 3.296066 5.80014 2.928453
v 2.703931 5.80014 2.928453
vn 0.5714818 -0.05834227 0.05777697
vn 0.5714818 0.05834227 0.05777697
vn 0.5714818 0.05834227 -0.05777677
vn 0.5714818 -0.05834227 -0.05777677
vn -0.5714818 0.05834229 -0.05777696
vn -0.5714818 0.05834226 0.05777678
vn -0.5714818 -0.05834226 0.05777678
vn -0.5714818 -0.05834229 -0.05777696
vn -0.5714818 -0.05834229 -0.05777696
vn 0.5714818 -0.05834227 -0.05777677
vn 0.5714818 0.05834227 -0.05777677
vn -0.5714818 0.05834229 -0.05777696
vn -0.5714818 -0.05834226 0.05777678
vn 0.5714818 -0.05834227 0.05777697
vn 0.5714818 -0.05834227 -0.05777677
vn -0.5714818 -0.05834229 -0.05777696
vn 0.5714818 0.05834227 0.05777697
vn 0.5714818 -0.05834227 0.05777697
vn -0.5714818 -0.05834226 0.05777678
vn -0.5714818 0.05834226 0.05777678
vn -0.5714818 0.05834229 -0.05777696
vn 0.5714818 0.05834227 -0.05777677
vn 0.5714818 0.05834227 0.05777697
vn -0.5714818 0.05834226 0.05777678
vt 0.9991207 0.0002957582
vt 0.9988784 0.9980083
vt 0.002778287 0.9984558
vt 0.002814294 0.0001903772
vt 0.001500964 0.9990195
vt 0.9987178 0.9989142
vt 0.9990015 0.00156188
vt 0.005022079 0.001240492
vt -0.1354364 0.001689315
vt 0.002814294 0.0001903772
vt 0.002778287 0.9984558
vt -0.1354336 0.9996883
vt 0.9989648 -0.1404794
vt 0.9991207 0.0002957582
vt 0.002814294 0.0001903772
vt 0.002948945 -0.1405851
vt 0.9988784 0.9980083
vt 0.9991207 0.0002957582
vt 1.138588 0.001749873
vt 1.138252 0.9994624
vt 0.002775225 1.119871
vt 0.002778287 0.9984558
vt 0.9988784 0.9980083
vt 0.9987909 1.119423
usemtl Wall_Gray_A
f 3/3/3 2/2/2 1/1/1
f 4/4/4 3/3/3 1/1/1
f 7/7/7 6/6/6 5/5/5
f 8/8/8 7/7/7 5/5/5
f 11/11/11 10/10/10 9/9/9
f 12/12/12 11/11/11 9/9/9
f 15/15/15 14/14/14 13/13/13
f 16/16/16 15/15/15 13/13/13
f 19/19/19 18/18/18 17/17/17
f 20/20/20 19/19/19 17/17/17
f 23/23/23 22/22/22 21/21/21
f 24/24/24 23/23/23 21/21/21
